{"title":"Regarde les hommes tomber (1994)","uid":9106567,"size":685402112,"categoryP":"video","categoryS":"movies","magnet":"?xt=urn:btih:c2ca4ec47e7ae508757edfe89dfb8265677791fb&amp;dn=Regarde+les+hommes+tomber+%281994%29&amp;tr=udp%3A%2F%2Ftracker.openbittorrent.com%3A80&amp;tr=udp%3A%2F%2Fopen.demonii.com%3A1337&amp;tr=udp%3A%2F%2Ftracker.coppersurfer.tk%3A6969&amp;tr=udp%3A%2F%2Fexodus.desync.com%3A6969","seeders":4,"leechers":1,"uploader":"hermina14","files":1,"time":1382890642,"description":"Director: Jacques Audiard \nStars: Jean-Louis Trintignant, Mathieu Kassovitz\n\nRegarde les hommes tomber\n\n      Format : AVI\n      Format/Info : Audio Video Interleave\n      File size : 654 MiB\n      Duration : 1h 35mn\n      Overall bit rate : 954 Kbps\n      Writing application : Nandub v1.0rc1\n      Writing library : Nandub build 1841/release\n   Video #0\n      ID : 0\n      Format : MPEG-4 Visual\n      Format settings, BVOP : Yes\n      Format settings, QPel : No\n      Format settings, GMC : No warppoints\n      Format settings, Matrix : Default (H.263)\n      Muxing mode : Packed bitstream\n      Codec ID : DX50\n      Codec ID/Hint : DivX 5\n      Duration : 1h 35mn\n      Bit rate : 830 Kbps\n      Width : 640 pixels\n      Height : 384 pixels\n      Display aspect ratio : 1.667\n      Frame rate : 25.000 fps\n      Resolution : 24 bits\n      Scan type : Progressive\n      Bits/(Pixel*Frame) : 0.135\n      Stream size : 569 MiB (87%)\n      Writing library : DivX 5.0.2 (UTC 2002-05-16)\n   Audio #1\n      ID : 1\n      Format : MPEG Audio\n      Format version : Version 1\n      Format profile : Layer 3\n      Codec ID : 55\n      Codec ID/Hint : MP3\n      Duration : 1h 35mn\n      Bit rate mode : Variable\n      Bit rate : 111 Kbps\n      Minimum bit rate : 32.0 Kbps\n      Channel(s) : 2 channels\n      Sampling rate : 48.0 KHz\n      Resolution : 16 bits\n      Stream size : 76.0 MiB (12%)\n      Alignment : Aligned on interleaves\n      Interleave, duration : 24 ms (0.60 video frame)\n      Interleave, preload duration : 475 ms\n      Writing library : LAME3.92 \n      Encoding settings : -m j -V 3 -q 2 -lowpass 19.1 --vbr-new -b 32","torrent":{"xt":"urn:btih:c2ca4ec47e7ae508757edfe89dfb8265677791fb","amp;dn":"Regarde+les+hommes+tomber+%281994%29","amp;tr":["udp%3A%2F%2Ftracker.openbittorrent.com%3A80","udp%3A%2F%2Fopen.demonii.com%3A1337","udp%3A%2F%2Ftracker.coppersurfer.tk%3A6969","udp%3A%2F%2Fexodus.desync.com%3A6969"],"infoHash":"c2ca4ec47e7ae508757edfe89dfb8265677791fb","infoHashBuffer":{"type":"Buffer","data":[194,202,78,196,126,122,229,8,117,126,223,232,157,251,130,101,103,119,145,251]},"announce":[],"urlList":[]}}